<?xml version="1.0" encoding="utf-8"?>
<svg version="1.1" id="Layer_2" xmlns="http://www.w3.org/2000/svg" xmlns:xlink="http://www.w3.org/1999/xlink" x="0px" y="0px"
	 viewBox="0 0 158 56" style="enable-background:new 0 0 158 56;" xml:space="preserve">
<style type="text/css">
	.st0{fill:#249446;}
	.st1{fill:#1A589F;}
	.st2{fill:#FFFFFF;}
</style>
<path class="st0" d="M35.4,2.3H5.8C4.3,2.3,3.1,3.5,3.1,5v18.2c2.3-1.8,5.2-4.2,10.5-2.9c4.5,1.1,5.5,4.6,12.7,8.6
	c4.4,2.4,8.5,0.6,11.9-1.4V5C38.1,3.5,36.9,2.3,35.4,2.3"/>
<path class="st1" d="M28.5,36.9c-1.5-0.2-2.6-0.7-3.8-1.4c-2.5-1.5-4.9-4.1-10-6.7c-4.1-2-8-0.5-11.7,1.6c0,0,0,0,0,0v20.4
	c0,1.5,1.2,2.7,2.7,2.7h29.6c1.5,0,2.7-1.2,2.7-2.7V34.1C34.9,35.9,31.9,37.4,28.5,36.9"/>
<path class="st2" d="M26.2,28.8c-7.2-4-8.1-7.4-12.7-8.6c-5.2-1.3-8.2,1.2-10.5,2.9l0,3.7l0,3.5c3.6-2.1,7.7-3.7,11.7-1.6
	c5.1,2.7,7.5,5.2,10,6.7c1.1,0.7,2.3,1.2,3.8,1.4c3.4,0.5,6.4-1,9.5-2.8l0-3.2l0-3.5C34.7,29.3,30.6,31.2,26.2,28.8"/>
<g>
	<path d="M47.5,44.2V27.4h2v16.8H47.5z M51.9,35.3l6.7,8.9h-2.6l-6.4-8.9l6.5-7.9h2.6L51.9,35.3z"/>
	<path d="M69.7,44.6c-0.8-0.3-1.4-0.9-1.7-1.8c-1.2,1.2-2.1,1.6-3.5,1.6c-3,0-3.9-1.8-3.9-3.5c0-2.8,2.4-4.4,6.5-4.4
		c0.3,0,0.5,0,0.9,0v-0.9c0-1.1,0-1.5-0.4-1.9c-0.4-0.4-0.9-0.7-1.6-0.7c-1.4,0-3.1,0.7-3.9,1.4l-1-1.4c1.6-1.1,3.4-1.6,5.1-1.6
		c1.7,0,2.9,0.7,3.4,1.9c0.3,0.7,0.3,1.6,0.3,2.7l-0.1,4c0,2,0.1,2.5,1,3L69.7,44.6z M66.9,37.9c-3.1,0-4.2,1.1-4.2,2.9
		c0,1.4,0.7,2.2,2.1,2.2c1.2,0,2.4-0.8,3-1.9l0.1-3.2C67.6,38,67.2,37.9,66.9,37.9z"/>
	<path d="M79.3,33.8c-0.1,0-0.3-0.1-0.5-0.1c-0.7,0-1.5,0.3-2,0.9c-0.6,0.6-0.7,0.9-0.7,1.9v7.6h-1.9v-9.4c0-1.6-0.3-2.4-0.4-2.6
		l1.9-0.5c0.1,0.2,0.5,1.1,0.4,2c0.9-1.2,2.2-2,3.4-2c0.3,0,0.6,0.1,0.7,0.1L79.3,33.8z"/>
	<path d="M88,33.4h-2.5v7.9c0,1.3,0.4,1.8,1.6,1.8c0.5,0,0.9-0.1,1.2-0.2l0.3,1.2c-0.6,0.3-1.3,0.5-2.2,0.5c-0.6,0-1.1-0.1-1.6-0.3
		c-0.9-0.4-1.2-1.2-1.2-2.4v-8.4H82V32h1.6c0-1.1,0.1-2.7,0.2-3.1l2-0.4c0,0.4-0.2,2.1-0.2,3.5h3.1L88,33.4z"/>
	<path d="M96.9,44.3h-1.9l-4.4-12.2l2-0.4l2.8,8.4c0.3,0.9,0.5,1.9,0.6,2.1h0c0-0.2,0.2-1.1,0.6-2.1l2.8-8.1h2L96.9,44.3z"/>
	<path d="M105.5,38.4v0.3c0,1.2,0.1,2,0.6,2.7c0.7,1.1,1.8,1.5,3,1.5c1.2,0,2.1-0.4,3-1.2l0.7,1.2c-1.1,1-2.5,1.5-4.1,1.5
		c-3.4,0-5.4-2.4-5.4-6.5c0-2.1,0.4-3.4,1.5-4.6c1-1.2,2.2-1.7,3.6-1.7c1.3,0,2.5,0.5,3.3,1.3c1.1,1.1,1.4,2.2,1.4,5.1v0.3H105.5z
		 M110.6,34.2c-0.4-0.7-1.3-1.1-2.2-1.1c-1.7,0-2.7,1.3-2.8,3.8h5.6C111.1,35.6,110.9,34.8,110.6,34.2z"/>
	<path d="M121.9,33.8c-0.1,0-0.3-0.1-0.5-0.1c-0.7,0-1.5,0.3-2,0.9c-0.6,0.6-0.7,0.9-0.7,1.9v7.6h-1.9v-9.4c0-1.6-0.3-2.4-0.4-2.6
		l1.9-0.5c0.1,0.2,0.5,1.1,0.4,2c0.9-1.2,2.2-2,3.4-2c0.3,0,0.6,0.1,0.7,0.1L121.9,33.8z"/>
	<path d="M125.3,44.2v-15c0-1.4-0.2-2.3-0.3-2.5l1.9-0.4c0.1,0.2,0.3,1.2,0.3,2.9v15H125.3z M132.9,44.2l-5.6-6.9l4.7-5.3h2.4
		l-4.8,5.3l5.9,6.9H132.9z"/>
	<path d="M138.9,38.4v0.3c0,1.2,0.1,2,0.6,2.7c0.7,1.1,1.8,1.5,3,1.5c1.2,0,2.1-0.4,3-1.2l0.7,1.2c-1.1,1-2.5,1.5-4.1,1.5
		c-3.4,0-5.4-2.4-5.4-6.5c0-2.1,0.4-3.4,1.5-4.6c1-1.2,2.2-1.7,3.6-1.7c1.3,0,2.5,0.5,3.3,1.3c1.1,1.1,1.4,2.2,1.4,5.1v0.3H138.9z
		 M143.9,34.2c-0.4-0.7-1.3-1.1-2.2-1.1c-1.7,0-2.7,1.3-2.8,3.8h5.6C144.4,35.6,144.3,34.8,143.9,34.2z"/>
	<path d="M154.7,33.4h-2.5v7.9c0,1.3,0.4,1.8,1.6,1.8c0.5,0,0.9-0.1,1.2-0.2l0.3,1.2c-0.6,0.3-1.3,0.5-2.2,0.5
		c-0.6,0-1.1-0.1-1.6-0.3c-0.9-0.4-1.2-1.2-1.2-2.4v-8.4h-1.6V32h1.6c0-1.1,0.1-2.7,0.2-3.1l2-0.4c0,0.4-0.2,2.1-0.2,3.5h3.1
		L154.7,33.4z"/>
</g>
</svg>
